<svg xmlns="http://www.w3.org/2000/svg" width="1052" height="1052" viewBox="0 0 1052 1052" version="1.1">
	<path d="M 782.691 478.089 C 745.806 481.132, 714.236 494.866, 690.944 518 C 666.574 542.205, 655.014 571.432, 655.004 608.872 C 654.993 649.699, 667.468 681.623, 693.511 707.415 C 713.665 727.373, 736.982 741.114, 787 762.508 C 841.677 785.894, 857.389 795.921, 865.068 812.331 C 870.559 824.066, 870.664 839.466, 865.330 850.796 C 859.435 863.314, 843.618 874.609, 826.287 878.674 C 814.445 881.451, 787.616 881.215, 775.726 878.229 C 749.516 871.648, 729.247 856.559, 711.275 830.250 C 708.175 825.712, 705.302 822, 704.891 822 C 703.910 822, 627.874 865.899, 626.264 867.395 C 625.297 868.293, 626.100 870.344, 629.961 876.835 C 638.747 891.607, 646.262 901.262, 658.500 913.501 C 673.390 928.393, 685.195 936.844, 704.500 946.436 C 735.450 961.813, 765.539 968.355, 805 968.288 C 832.770 968.241, 851.426 965.464, 874.593 957.929 C 898.210 950.249, 915.047 940.009, 932 923.018 C 949.436 905.543, 958.956 888.306, 964.801 863.625 C 967.214 853.433, 967.437 850.696, 967.460 831 C 967.478 814.525, 967.068 807.289, 965.706 800.039 C 960.792 773.897, 949.331 751.808, 931.143 733.423 C 909.829 711.881, 882.714 695.807, 827.500 671.983 C 785.967 654.062, 772.861 646.904, 763.756 637.170 C 755.132 627.950, 751.287 616.452, 752.243 602.745 C 752.951 592.599, 756.079 585.109, 762.505 578.168 C 772.047 567.862, 783.042 563.609, 800 563.665 C 812.044 563.705, 820.159 565.491, 829.928 570.254 C 838.334 574.352, 850.784 586.598, 857.430 597.304 C 860.569 602.360, 862.753 604.925, 863.632 604.588 C 866.091 603.644, 938.493 556.887, 938.796 556.047 C 939.468 554.181, 922.505 530.703, 913.963 521.677 C 888.429 494.697, 857.655 481.066, 815.395 478.019 C 799.996 476.909, 796.914 476.916, 782.691 478.089 M 472.734 659.250 C 472.435 824.597, 472.304 835.961, 470.623 842.959 C 465.634 863.720, 454.970 875.147, 437.063 878.915 C 428.819 880.650, 410.533 880.378, 404 878.423 C 387.202 873.396, 375.473 862.424, 361.692 838.847 C 358.846 833.978, 356.224 830.108, 355.866 830.247 C 355.508 830.386, 337.403 841.279, 315.633 854.452 L 276.052 878.405 280.479 886.727 C 299.455 922.399, 328.265 947.168, 365 959.393 C 406.107 973.072, 458.606 971.366, 495.723 955.144 C 535.209 937.886, 558.805 906.144, 568.681 857 C 570.247 849.207, 570.417 833.296, 570.718 665.750 L 571.047 483 522.050 483 L 473.053 483 472.734 659.250" stroke="#61dafb" fill="#61dafb" fill-rule="evenodd"/>
</svg>